<?xml version="1.0" encoding="UTF-8" standalone="no"?>
<!-- Created with Inkscape (http://www.inkscape.org/) -->

<svg
   xmlns:dc="http://purl.org/dc/elements/1.1/"
   xmlns:cc="http://creativecommons.org/ns#"
   xmlns:rdf="http://www.w3.org/1999/02/22-rdf-syntax-ns#"
   xmlns:svg="http://www.w3.org/2000/svg"
   xmlns="http://www.w3.org/2000/svg"
   xmlns:sodipodi="http://sodipodi.sourceforge.net/DTD/sodipodi-0.dtd"
   xmlns:inkscape="http://www.inkscape.org/namespaces/inkscape"
   version="1.1"
   viewBox="0 0 960 951"
   id="svg2"
   inkscape:version="0.48.4 r9939"
   width="100%"
   height="100%"
   sodipodi:docname="logo.svg">
  <defs
     id="defs10" />
  <sodipodi:namedview
     pagecolor="#ffffff"
     bordercolor="#666666"
     borderopacity="1"
     objecttolerance="10"
     gridtolerance="10"
     guidetolerance="10"
     inkscape:pageopacity="0"
     inkscape:pageshadow="2"
     inkscape:window-width="1366"
     inkscape:window-height="701"
     id="namedview8"
     showgrid="false"
     inkscape:zoom="0.701902"
     inkscape:cx="716.75632"
     inkscape:cy="663.84261"
     inkscape:window-x="0"
     inkscape:window-y="40"
     inkscape:window-maximized="1"
     inkscape:current-layer="svg2" />
  <metadata
     id="metadata4">
    <rdf:RDF>
      <cc:Work
         rdf:about="">
        <dc:format>image/svg+xml</dc:format>
        <dc:type
           rdf:resource="http://purl.org/dc/dcmitype/StillImage" />
        <dc:title />
      </cc:Work>
    </rdf:RDF>
  </metadata>
  <path
     fill="#000"
     d="M481.56,4.4821c-37.46-0.031-46.09,0.5601-75.94,5.0269-80.85,12.099-161.15,47.171-225.06,98.311-16.71,13.37-20.75,17.05-41.29,37.61-42.674,42.71-73.788,87.95-97.698,142.05-55.529,125.66-52.096,273.07,9.209,395.52,51.319,102.49,136.8,182.24,243.44,227.05,47.462,19.947,95.787,31.257,153.49,35.956,2.1923,0.17847,16.64,0.40614,32.118,0.49885,30.706,0.18276,53.8-1.6187,81.62-6.3316,168.17-28.488,308.71-144.11,367.58-302.42,14.094-37.901,22.87-76.507,27.13-118.92h0.46047l0.0768-5.5641c0.44397-5.4957,0.75528-12.766,0.92095-20.722l0.0384-0.19188h-0.0384c0.44213-21.543-0.11929-48.477-1.5733-62.165-8.2216-77.396-32.423-146.19-73.868-209.98-39.111-60.191-98.519-116.69-158.44-150.65-4.3846-2.4849-10.013-5.6494-12.51-7.0607-7.5402-4.2616-29.933-15.328-36.838-18.189-3.5625-1.4759-7.7956-3.2771-9.4398-4.0292-25.22-11.542-73.13-25.106-106.95-30.283-32.74-5.0121-39.24-5.495-76.44-5.5259zm20.453,17.652c0.92099-0.05152,2.1692-0.02831,3.7222,0.11512,3.1514,0.29106,10,0.84021,15.196,1.2279,10.737,0.80128,14.865,2.1895,17.882,6.0246,4.9214,6.2566,3.9262,12.64-3.0315,19.417l-4.9501,4.835,4.8734,6.9456c6.0948,8.6787,12.2,16.002,13.316,16.002,1.2014,0,1.9714-1.0198,18.726-24.636,8.263-11.647,15.695-21.182,16.5-21.182,0.80507,0,1.4582,0.12425,1.4582,0.26861s2.4309,12.492,5.4106,27.475c5.4182,27.244,6.4271,30.244,10.514,31.313,1.4938,0.39061,2.2962-0.63566,4.0676-5.3723,1.2064-3.2258,2.5886-5.8711,3.0699-5.8711,0.48121,0,0.84421,2.232,0.84421,4.9501,0,4.1082,0.48498,5.3604,2.7629,7.4828,6.9192,6.4466,16.291,4.8728,17.767-2.9931,0.72335-3.8556-0.39808-6.2146-6.063-12.932-2.3111-2.7404-4.93-6.4195-5.8327-8.1735-1.9394-3.7683-2.1367-10.734-0.38372-14.198,3.7258-7.363,15.616-9.3171,26.362-4.3362,3.1664,1.4676,5.9191,2.7859,6.1013,2.9164,0.18216,0.13049-0.49228,2.7378-1.4966,5.7944-1.9646,5.9792-4.2426,7.4132-4.1059,2.6094,0.11679-4.1097-2.5121-7.6305-6.7153-9.0177-9.5563-3.1539-15.303,4.5344-9.0944,12.164,11.152,13.706,11.128,13.621,11.128,20.722,0,8.7545-3.0772,13.161-10.706,15.426-2.8247,0.83884-5.5924,1.4876-6.1781,1.4582-2.3104-0.11627-12.643-3.7913-15.733-5.6025-1.7997-1.0547-7.758-2.9678-13.239-4.2594-10.974-2.5862-11.473-2.7998-9.6701-3.9141,0.98776-0.61068,0.99372-2.2941,0.0383-8.1735-0.66118-4.0692-1.4953-7.7558-1.8803-8.2119-0.38494-0.45604-4.3617-1.6526-8.8258-2.6478l-8.1351-1.8035-2.3024,3.1466c-6.3067,8.5619-7.0395,10.998-3.6071,11.896,1.0962,0.28664,1.9954,1.0521,1.9954,1.6884,0,0.63636-0.76766,0.92431-1.7268,0.65234-2.12-0.60112-11.355-2.3584-16.5-3.1466-5.191-0.79522-9.8408-5.2502-15.848-15.081-4.4124-7.2207-5.5315-8.3877-8.4805-8.941-1.8652-0.34996-3.682-0.3074-4.0676,0.07675-0.38544,0.38414-0.72909,4.7982-0.72909,9.8235v9.1328l3.2617,0.34536c2.016,0.19439,3.2234,0.8302,3.2234,1.7268,0,1.1353-1.0948,1.3451-5.2188,0.95932-2.8774-0.26916-8.2729-0.74712-11.972-1.0745-3.6995-0.32732-6.7153-1.0305-6.7153-1.5349,0-0.50445,1.0676-0.92096,2.3791-0.92096,1.3116,0,2.6535-0.68835,2.9931-1.5733,0.85083-2.2174,3.5537-33.351,3.5687-41.098,0.0118-6.1056-0.0642-6.3534-2.9548-7.4444-3.5796-1.3512-3.7606-2.3013-0.99769-2.4559zm-40.637,1.9954c1.5998,0.01709,2.8853,0.07575,3.7606,0.19187,14.377,1.9072,22.93,11.674,22.909,26.209-0.011,7.5591-2.7122,14.558-7.5212,19.57-4.0582,4.2296-13.609,8.3964-20.722,9.0177-15.376,1.343-30.545,1.6678-30.545,0.65234,0-0.57742,0.85121-1.0745,1.8803-1.0745,4.3005,0,4.481-1.7019,2.6861-24.674-1.8963-24.271-2.0302-25.076-4.3746-25.288-0.92216-0.08348-2.3311-0.21275-3.1082-0.26861-0.77728-0.05586-1.571-0.5686-1.7652-1.1512-0.41226-1.2368,25.601-3.3046,36.8-3.185zm57.867,3.7606c-2.094,0.09187-2.233,0.75332-2.6861,5.2188-1.5001,14.784-1.471,17.584,0.23024,18.035,7.4399,1.9752,12.793-1.1547,14.083-8.2119,1.5871-8.6791-2.871-15.033-10.591-15.042-0.38616-0.000454-0.73694-0.01312-1.0361,0zm-70.875,0.9977c-5.8907,0.11096-5.406,1.7287-3.9141,21.604,0.81962,10.919,2.0061,20.866,2.6478,22.065,1.0043,1.8764,2.0212,2.1489,7.2525,2.1489,16.523,0,23.936-8.1025,22.41-24.444-1.238-13.258-10.936-21.413-25.441-21.374-1.1163,0.003-2.1132-0.01586-2.9547,0zm-42.594,2.4943,1.2663,6.9072c0.6959,3.7951,1.0756,7.0979,0.80585,7.3677-0.26976,0.26977-1.9942-1.2447-3.8373-3.3768-3.2554-3.766-3.5761-3.8936-10.821-4.2594-6.4801-0.32723-8.1905-0.01323-13.085,2.3024-4.3476,2.0568-6.228,3.6868-8.2502,7.1374-2.3156,3.9512-2.5735,5.2369-2.1489,11.128,0.80457,11.163,6.6452,20.031,15.733,23.907,4.3451,1.8531,13.653,1.9437,17.882,0.19186,3.1017-1.2848,3.1959-1.4196,2.5326-5.8711-0.37498-2.5165-1.4334-6.8146-2.3408-9.5549-1.5269-4.6116-1.8911-4.9885-4.8734-4.9885-6.3598,0-3.1594-1.8963,7.6746-4.528,10.762-2.6142,14.428-2.6107,9.4782,0.03837-2.9518,1.5798-2.9472,1.4073-0.46049,11.781,1.0924,4.5563,1.9954,9.0795,1.9954,10.054,0,2.3114-7.9266,6.5903-15.58,8.4421-16.623,4.0223-28.552,1.7768-36.109-6.8304-4.8945-5.5746-6.4148-10.015-6.5234-18.956-0.0847-6.9744,0.24528-8.5649,2.6094-12.586,6.5535-11.148,18.999-17.183,37.107-17.997l6.9456-0.30698zm172.95,15.426c-0.95904,0-10.024,14.189-9.4398,14.774,0.29685,0.29688,3.0748,1.083,6.2165,1.7268,3.1417,0.64376,5.9073,1.045,6.1014,0.88258,0.56491-0.47286-2.2356-17.383-2.878-17.383zm-241.9,3.492,1.9954,6.2932c2.1109,6.718,1.6942,8.9646-1.0361,5.5257-3.6624-4.6129-9.7649-5.508-18.88-2.8012-10.066,2.9892-15.922,10.83-14.735,19.801,2.5496,19.27,19.623,30.067,35.649,22.525,2.6034-1.2252,4.7583-2.5808,4.7583-2.9931,0-1.3221-5.9699-15.209-7.1374-16.616-0.76052-0.91635-2.1894-1.1534-4.4513-0.72909-6.5402,1.227-3.1578-1.163,7.713-5.4106,10.462-4.0877,14.991-4.7514,10.092-1.4582-2.9863,2.0077-2.8406,3.3623,1.3431,13.738l3.5687,8.8258-2.3408,1.8803c-5.2648,4.213-10.498,7.0896-16.692,9.2096-20.846,7.1348-35.99,0.89682-41.443-17.076-1.8958-6.2492-1.8453-9.9277,0.15349-16.117,1.9321-5.9825,5.9026-11.06,11.857-15.157,4.7484-3.2669,20.064-8.6523,25.94-9.1328l3.6454-0.30699zm326.79,7.099c1.0017-0.10438,3.93,0.81495,7.9432,2.6478,4.0367,1.8435,8.8306,3.9184,10.629,4.6432,3.8004,1.5312,3.4351,2.4105-0.99771,2.4943-3.0421,0.05753-3.2782,0.44809-8.6724,12.586-13.593,30.588-13.865,31.5-9.5549,33.807,1.3702,0.73331,2.4943,1.7318,2.4943,2.1873,0,1.3229-0.90298,1.0244-12.203-3.8373-10.277-4.4217-13.979-7.192-7.7898-5.8327,2.7323,0.60012,3.1192,0.32034,5.3723-4.1443,4.2018-8.3262,16.616-37.74,16.616-39.371,0-0.85885-1.0308-2.2408-2.264-3.0699-1.9794-1.3308-2.3524-2.0293-1.5733-2.1105zm-384.04,3.8757c0.051-0.0017,0.0938,0.01708,0.11511,0.03837,0.25968,0.25969-0.70207,1.7133-2.1489,3.2234-2.2132,2.3101-2.821,4.1711-3.6838,11.704-0.56404,4.9241-1.0263,13.39-1.0361,18.803v9.8235l5.142,9.8619c6.3176,12.081,6.833,12.562,11.435,10.898,1.9232-0.69547,3.7816-1.0151,4.1059-0.69073,0.8007,0.80078,1.1528,0.56645-11.512,7.4444-6.1864,3.3597-11.675,6.1013-12.203,6.1013-1.612,0-1.0685-1.4101,1.0361-2.7245,2.9478-1.841,2.4804-5.1514-2.0338-13.853-5.0591-9.752-7.9751-12.364-23.715-21.374-11.116-6.363-13.239-7.2274-17.844-7.2909-2.8768-0.03972-5.0858-0.51231-4.9118-1.0361,0.174-0.52376,2.2324-1.9507,4.5664-3.185s6.2943-3.4032,8.7875-4.7966c4.8595-2.7161,8.6045-3.5009,6.4467-1.3431-0.65769,0.65769-1.1896,1.5736-1.1896,1.9954,0,0.92954,12.278,9.2612,20.223,13.738l5.756,3.2234-0.26861-14.812c-0.27065-14.503-0.33684-14.807-2.5326-15.119-1.2332-0.17514-2.264-0.70966-2.264-1.1896,0-0.97615,15.093-8.9654,17.537-9.4014,0.0815-0.01454,0.14082-0.03668,0.19188-0.03837zm417.76,11.013c2.2328,0.02828,21.911,10.405,21.911,11.627,0,0.95184-1.6874,0.72228-5.1036-0.69072-2.2128-0.91526-3.8547,1.5983-14.39,22.065-9.947,19.324-9.9077,18.22-0.99771,23.331,5.9859,3.4334,8.3843,3.6062,11.896,0.84422,3.1936-2.5121,3.4159-0.97398,0.53722,3.6838-3.524,5.7019-4.4968,5.754-14.39,0.30698-4.9085-2.7025-12.406-6.7457-16.654-8.941-4.2476-2.1952-7.7514-4.4647-7.7514-5.0653,0-0.64826,0.73001-0.80853,1.7652-0.38373,4.9864,2.046,5.9297,0.84155,18.688-23.983l8.9793-17.46-2.7629-2.3791c-1.5031-1.3191-2.3349-2.6354-1.8803-2.9164,0.0344-0.02126,0.0815-0.03929,0.15349-0.03843zm-230.97,21.374,8.7491,0,0,3.7222c0.009,2.0553,0.66419,6.42,1.4582,9.7084,0.79413,3.2885,1.4767,7.0171,1.4966,8.2502,0.0195,1.2332-0.31803,2.2194-0.72908,2.1873-1.845-0.14474-8.3513-5.2117-10.898-8.4805-1.5416-1.9786-5.8082-5.9634-9.4782-8.8642l-6.6769-5.2955,3.6838-0.61397c2.0258-0.33493,7.5989-0.60783,12.395-0.61397zm33.001,0.80584c0.91301-0.01382,2.1008,0.015,3.6838,0.07674,3.533,0.13784,11.351,0.90431,17.345,1.6884,5.994,0.78411,11.078,1.4198,11.32,1.4198,1.1178,0-1.1932,11.101-3.5303,16.923-1.4309,3.5638-3.6173,9.6325-4.835,13.469-1.6223,5.1111-2.7166,7.0307-4.0676,7.1758-3.4941,0.37528-11.181-2.7392-14.16-5.7176-5.7879-5.788-11.37-25.108-9.3247-32.272,0.61687-2.1602,0.82972-2.7214,3.5687-2.7629zm-65.196,4.7967,2.264,1.9187c5.6738,4.871,15.641,16.197,19.494,22.141,5.7078,8.8069,6.7163,12.73,6.6386,25.633-0.0989,16.427-4.4836,27.785-15.388,39.716-2.833,3.0998-5.4383,5.6419-5.7944,5.6409-1.34-0.005-8.3061-18.372-10.322-27.207-1.6334-7.1575-2.12-12.61-2.1489-24.636-0.0333-13.82,0.26186-16.593,2.8012-26.401,1.561-6.0288,2.7494-12.284,2.6478-13.891l-0.19188-2.9164zm125.29,3.3768c5.4689-0.0797,53.601,14.039,55.987,16.424,0.29705,0.29705-0.54318,1.3125-1.8803,2.2256-1.3371,0.91318-5.8969,5.0102-10.131,9.1328-11.18,10.886-14.842,12.523-21.259,9.4782-4.9138-2.3318-8.1055-5.9452-11.051-12.51-1.8187-4.0525-3.1774-5.8327-4.4513-5.8327-2.778,0-4.9986,4.2469-5.5641,10.668-0.59679,6.7754,1.4084,12.664,7.6363,22.525,5.0762,8.0375,6.2707,13.868,5.8327,28.358-0.39313,13.003-1.5289,16.312-8.5956,25.633-2.0747,2.7368-4.4311,5.098-5.2571,5.2571-2.5492,0.49092-6.1484-4.4-6.9839-9.4782-0.43018-2.6143-0.84169-10.34-0.88258-17.191-0.0963-16.17-1.7294-22.774-9.0561-36.608-3.2635-6.1621-5.9095-12.479-5.9095-14.045,0-2.809,0.68526-3.9108,10.898-17.114,2.7555-3.5625,6.0112-8.8358,7.2525-11.704,1.2413-2.8681,2.7734-5.2102,3.4152-5.2188zm-192.94,6.6769,5.2188,3.492c7.2726,4.8323,17.42,14.967,22.909,22.909,9.5568,13.826,14.09,27.738,17.23,52.61,2.0582,16.305,1.5124,29.884-1.957,48.427-4.1336,22.093-4.1076,22.827,0.38373,54.221,4.1639,29.106,6.6872,43.515,10.054,56.946,2.9141,11.626,2.191,18.377-2.4943,23.062-4.7808,4.7808-20.799-1.4223-30.276-11.704-8.8315-9.581-11.787-17.946-10.207-29.087,1.2554-8.8527,2.6308-13.314,9.7084-31.773,14.69-38.313,13.542-34.123,13.507-49.808-0.0459-20.562-3.0445-34.524-9.9387-46.278-4.8524-8.2732-19.656-23.824-25.94-27.245-6.5298-3.5539-15.988-5.6613-25.403-5.6792-4.2476-0.008-7.713-0.17196-7.713-0.34536,0-2.1537-2.5384-13.583-4.1443-18.611-2.9036-9.0901-6.4218-15.014-10.898-18.381l-3.8373-2.9164,7.6746-3.4152c9.8084-4.3476,31.753-12.401,39.87-14.659l6.2548-1.7652zm265.54,16.232c1.1824,0,27.472,13.009,34.728,17.191l8.7875,5.0653-0.38374,13.546c-0.42391,14.798-0.95538,16.575-7.9049,26.976-5.1164,7.6581-16.973,20.228-24.367,25.825-3.4233,2.5915-11.288,7.2614-17.498,10.361-12.604,6.2909-16.998,7.3597-20.913,5.1804-3.4755-1.9343-3.625-2.656-2.7629-11.972,0.40592-4.3846,0.31945-16.936-0.1535-27.897-1.0167-23.57-0.56191-26.513,4.7967-32.195,0.68509-0.7264,1.2663-1.7514,1.2663-2.264,0-0.51263,4.0455-5.0645,9.0177-10.131,4.9722-5.066,10.392-11.589,12.049-14.467,1.6571-2.8774,3.1547-5.2188,3.3385-5.2188zm-332.35,9.977c1.56,0,3.4436,6.6528,3.3768,11.934-0.0381,3.0144-0.89286,10.527-1.9187,16.692l-1.8803,11.205-4.528-0.0384c-5.4211-0.0667-10.379-2.0376-18.995-7.5212-3.5347-2.2497-8.3384-5.0679-10.668-6.2548-2.3293-1.1869-4.2594-2.5915-4.2594-3.1082,0-1.3013,36.667-22.909,38.872-22.909zm197.85,14.428,2.7629,5.6025c3.9949,8.0438,5.6033,14.846,6.3316,26.976l0.61397,10.668-5.5258,11.243c-6.3904,12.983-10.716,19.069-21.489,30.2-4.2438,4.3846-9.2713,9.989-11.167,12.433-5.6127,7.2375-9.0039,11.094-16.462,18.726-3.8832,3.9736-7.8018,7.2142-8.7107,7.2142-4.2278,0-3.1535-13.149,1.9187-23.523,2.4808-5.0736,6.401-10.268,13.929-18.419,16.011-17.335,25.645-30.463,29.317-39.985,4.2266-10.96,6.8262-21.92,7.713-32.387l0.76747-8.7491zm197.08,10.399c0.43757-0.0297,5.4428,3.2032,11.128,7.2142l10.322,7.2909,0.69072,7.3293c1.0966,11.429-1.9272,18.561-9.2096,21.604-4.4534,1.8607-6.9882,1.8298-10.745-0.0767-3.5504-1.8021-7.473-6.2808-7.4828-8.5572-0.002-0.8922,0.73138-3.342,1.6117-5.449,1.019-2.4389,1.8173-8.4617,2.2256-16.577,0.35287-7.011,1.0205-12.749,1.4582-12.778zm-448.81,7.8665,2.9931,2.1105c1.64,1.1678,7.5048,4.0794,13.047,6.4851,10.162,4.4111,26.248,13.118,30.852,16.692,1.3702,1.0637,5.6417,4.98,9.4782,8.6724,15.055,14.49,19.904,17.897,50.192,35.38,6.7903,3.9196,13.735,9.9814,15.618,13.622,4.8368,9.3534-2.4702,36.006-10.975,40.062-4.2469,2.0252-12.716,2.1732-16.999,0.30698-1.6616-0.72392-5.5216-3.4881-8.5956-6.1781-3.0741-2.69-7.751-6.0068-10.399-7.3293-8.8589-4.4243-45.979-29.72-48.811-33.27-3.1706-3.9735-4.4129-3.8718-4.4129,0.4221,0,4.8112,2.3432,9.0296,8.327,15.004,4.5282,4.521,5.6409,6.2671,5.6409,8.8642,0,4.3055-3.2789,9.4082-7.0607,10.975-8.4561,3.5026-30.993-6.3689-33.116-14.505-0.28611-1.0962-0.78607-3.1705-1.1128-4.6432-0.47464-2.1392-1.2139-2.7438-3.799-2.9931-5.364-0.51731-6.7722-6.5296-7.7514-33.692-0.44443-12.332-1.1007-26.761-1.4966-32.042l-0.7291-9.5933,9.5549-7.1758,9.5549-7.1758zm86.148,7.5595c0.25943-0.10427,0.6517,0.22579,1.228,0.7291,1.0393,0.90766,6.1518,3.8115,11.358,6.4467,9.9374,5.0296,16.484,10.263,20.031,16.002,4.7771,7.7296,4.2667,15.963-1.1512,18.765-6.373,3.2956-15.461,1.0476-21.873-5.449-6.3485-6.4326-8.9461-13.667-9.6701-26.861-0.38748-7.0628-0.49397-9.4022,0.0767-9.6317zm404.19,16.577c0.29267,0.0173,4.2355,3.4827,8.7875,7.713l8.2886,7.6746-5.1804,3.3768c-7.1584,4.6586-12.436,5.1994-16.654,1.65-4.3615-3.6699-4.2488-7.3792,0.49885-14.735,2.034-3.1514,3.9669-5.6964,4.2594-5.6792zm-205.49,8.02c0.38636-0.0769,0.65646,0.1617,0.95933,0.5756,2.4046,3.2862,4.4119,12.258,4.4897,20.069,0.1135,11.389-4.507,20.554-13.047,25.825-4.3101,2.6605-11.22,3.0167-13.546,0.69072-2.2246-2.2245-1.8898-8.9251,0.72909-14.927,1.2112-2.7758,6.2211-11.444,11.128-19.263,6.0682-9.6699,8.1272-12.74,9.2863-12.97zm-332.66,9.3631-0.23024,10.476-0.23024,10.476-3.9524,0.15349c-2.1923,0.0845-6.1524-0.39643-8.7875-1.0361l-4.7966-1.1512,9.0177-9.4398,8.9793-9.4782zm489.65,5.9c4.2747-0.0857,7.5361,0.13145,8.1351,0.72908,1.6401,1.6361,1.713,11.976,0.11513,18.496-3.189,13.013-10.83,19.492-43.438,36.915-21.071,11.258-39.359,25.291-48.581,37.299-4.2783,5.5708-14.843,25.423-19.724,37.069-2.0324,4.8494-3.7712,7.4068-5.9095,8.7107-4.4159,2.6929-13.353,2.531-16.961-0.30698-3.5454-2.7889-8.4795-13.206-8.4805-17.92-0.002-12.805,5.9019-34.317,12.702-46.316,8.8039-15.536,24.193-32.843,39.524-44.398,13.592-10.244,40.524-22.636,60.399-27.821,5.1653-1.3474,15.094-2.313,22.218-2.4559zm80.085,8.1735,3.5303,3.9141c12.294,13.631,31.872,41.082,41.059,57.598,3.0385,5.462,3.5418,7.025,2.4559,7.713-0.74857,0.47421-1.7343,0.87521-2.1489,0.88258-2.5097,0.0507-20.077,7.876-24.712,11.013-3.0429,2.0595-9.6225,8.1185-14.659,13.431-7.5386,7.9516-10.017,9.8856-13.891,11.051-6.9837,2.1018-27.83,4.2033-54.145,5.4106-32.985,1.5134-38.186,2.5002-50.461,9.7468-11.5,6.7896-22.16,13.91-33.538,22.372-4.4625,3.3186-8.6395,6.4489-9.2863,6.9456-3.3067,2.5389-4.4554-9.9009-1.7652-19.225,3.3148-11.489,7.9906-22.515,12.433-29.279,9.8776-15.04,27.899-31.477,53.262-48.581,8.2211-5.5439,16.339-11.107,18.035-12.395,1.6959-1.288,3.5422-2.3408,4.0676-2.3408,2.9961,0,25.547-15.966,34.766-24.597,10.986-10.286,16.997-13.253,27.168-13.469l7.8282-0.19186zm-199.34,11.17c1.4356,0.0773,1.5191,2.675,1.2279,7.8281-0.50522,8.9408-4.1798,16.431-12.279,25.096-9.661,10.335-16.487,19.86-20.606,28.742-2.0843,4.4939-4.0608,9.303-4.4129,10.706-0.99153,3.9504-1.897,3.8131-4.3746-0.72909-1.2584-2.307-4.2699-6.7767-6.6769-9.9003s-5.0251-7.5345-5.8327-9.8236c-3.9023-11.06-0.82959-14.917,23.446-29.394,7.9435-4.7373,14.12-9.4294,20.184-15.273,5.0805-4.8953,7.8891-7.3298,9.3247-7.2525zm-397.47,14.97c1.4015-0.0282,3.0135,0.0638,4.9501,0.23024,8.9328,0.76767,13.48,3.0283,19.11,9.4398l3.3385,3.7606-4.8734,2.4943c-4.0564,2.0676-6.565,2.5143-15.311,2.8012-15.373,0.50443-22.265,1.3084-25.365,2.9164-4.7505,2.4646-4.738,2.3222,1.1896-6.2548,8.6424-12.505,10.888-15.266,16.961-15.388zm3.9524,22.218c5.073,0.00054,9.6558,0.44207,12.74,1.3814,4.5266,1.3787,5.3619,1.3776,9.2863-0.11512,5.5441-2.1088,6.3217-1.3344,7.2525,7.2909,0.43907,4.0685,2.1172,9.989,4.2211,14.966,8.017,18.964,5.3254,24.193-12.51,24.175-13.38-0.0134-32.605,1.937-40.637,4.1443-4.1106,1.1296-12.429,2.425-18.458,2.878-14.483,1.0881-16.214,1.0997-16.846,0.0767-0.59103-0.95619,17.565-37.768,22.256-45.127,2.3727-3.7212,3.901-4.9381,7.7514-6.2165,6.6497-2.2077,16.488-3.4545,24.943-3.4536zm313.93,9.6317c2.7408,0.0311,5.3646,0.72125,7.6747,2.1489,7.4672,4.615,13.3,23.244,12.279,39.141-0.52196,8.1331-2.3543,11.919-6.5618,13.507-7.6737,2.8972-12.84,1.8979-22.333-4.4129-6.1319-4.0765-7.176-4.4885-9.3631-3.492-2.2812,1.0394-2.579,0.85445-3.9141-2.3408-3.5864-8.5826-3.5541-22.378,0.0767-29.586,4.6742-9.2791,13.919-15.059,22.141-14.966zm-205.1,14.39c2.1365,0.0316,4.3537,0.20809,6.7153,0.49885,15.548,1.9144,26.79,7.1213,37.069,17.191,5.7478,5.6309,10.341,12.695,18.419,28.396,8.2769,16.089,19.856,26.488,49.31,44.321,21.561,13.055,33.025,22.112,36.493,28.818,6.6165,12.795,12.952,37.147,11.589,44.551-0.90821,4.9324-2.5973,8.0244-5.0269,9.3247-5.4589,2.9215-14.7-0.83975-29.432-12.011-17.6-13.346-30.736-27.627-45.434-49.463-7.0458-10.468-20.568-27.523-29.356-36.992-8.4944-9.1527-22.408-19.808-49.847-38.143-13.23-8.8403-19.979-17.44-21.873-27.897-0.6264-3.4596-0.50117-3.6364,3.2617-5.142,6.102-2.4415,11.703-3.5486,18.112-3.4536zm536.11,2.6861,4.4513,8.8258c4.0654,8.0948,14.394,32.483,16.002,37.798,0.63994,2.1153,0.42306,2.2616-4.1059,2.1873-2.6402-0.0433-5.2463-0.24988-5.7944-0.46048-0.54809-0.21061-7.967-0.79445-16.462-1.3047-8.4952-0.51026-16.627-1.4824-18.074-2.1489-3.44-1.5847-4.835-4.8613-4.835-11.32,0-12.229,7.1216-22.315,20.875-29.471l7.9433-4.1059zm-636.96,29.164c19.257,0.0222,37.918,2.6872,47.89,7.2525,10.008,4.5817,11.633,7.5868,5.449,10.092-9.8319,3.9833-20.25,9.1333-25.672,12.702-9.432,6.2076-21.998,17.145-27.437,23.868-2.7425,3.3899-6.0339,7.3954-7.3293,8.9026-2.9364,3.4164-5.2308,3.4537-10.169,0.1535-6.4396-4.3036-10.015-8.1851-21.911-23.983-6.2643-8.3192-12.791-16.233-14.505-17.575l-3.1082-2.4559,1.5733-4.3362c0.87393-2.3968,2.0583-6.1731,2.6094-8.3654l0.99769-3.9908h9.248c5.086-0.006,15.504-0.62992,23.177-1.3814,6.2469-0.61184,12.768-0.88999,19.187-0.88258zm286.07,6.2548,3.2617,3.9141c6.5241,7.7186,18.253,13.736,33.078,16.999,4.2728,0.94049,9.784,2.8478,12.241,4.2211,12.527,7.0014,8.8528,23.421-9.5166,42.402-7.1866,7.4259-7.8937,8.7084-5.7176,10.514,2.4771,2.0559,13.909-4.7396,21.22-12.625,1.3144-1.4175,4.2387-5.2829,6.4851-8.5956,5.0169-7.3981,12.825-13.469,17.345-13.469,4.2671,0,9.6565,3.7534,10.629,7.406,1.4662,5.5048-2.0011,16.073-8.6724,26.478-5.742,8.9558-20.332,24.935-26.861,29.432-7.5383,5.1918-13.245,5.6816-19.455,1.6884-19.858-12.77-32.304-46.126-33.538-89.908l-0.49-18.45zm277.36,17.076c1.5109-0.024,3.1084-0.011,4.835,0,20.607,0.13153,36.617,4.2773,41.29,10.668,4.0603,5.5529,1.6872,16.244-5.9095,26.593-3.495,4.7612-16.291,16.076-23.907,21.144-8.4509,5.6236-41.621,18.105-56.14,21.144-7.2545,1.5181-12.514,1.8407-14.889,0.88259-2.1335-0.8609-1.3798-6.5544,2.6094-19.877,4.6434-15.508,10.207-30.303,16.539-43.899l4.7199-10.092,5.6409-2.0722c8.7848-3.1986,14.635-4.3222,25.211-4.4897zm-483.66,10.131c8.011,0.0155,10.967,0.47834,17.153,2.7245,16.882,6.1299,27.016,15.845,36.148,34.536,3.9456,8.076,7.6746,20.314,7.6746,25.173,0,2.7163-9.3164,1.6238-27.398-3.185l-16.923-4.4897-30.392-0.84421c-32.519-0.88773-35.601-1.3354-42.518-6.5618-6.596-4.9843-6.4868-10.782,0.34535-20.952,4.0069-5.9642,8.725-9.9666,19.263-16.462,11.661-7.1872,21.838-9.9673,36.646-9.9387zm424.25,3.2617c1.9906-0.0764,2.3642,0.43941,2.8012,2.0722,1.7753,6.6326-0.31179,20.541-4.6815,31.236-5.1142,12.517-12.855,29.876-18.649,41.865-1.5893,3.2884-4.639,10.112-6.7921,15.157-8.949,20.97-20.158,34.838-31.658,39.141-3.1375,1.1739-12.917,3.713-21.719,5.6409-24.406,5.3454-33.469,5.2634-37.069-0.23024l-1.6117-2.4943,13.891-14.16c7.6428-7.7892,15.052-15.733,16.462-17.652,1.4098-1.9183,6.8228-11.772,12.049-21.911,18.03-34.979,19.634-37.603,29.202-48.235,12.281-13.648,18.609-18.634,33.193-25.979,3.9784-2.0035,9.4009-3.8736,12.011-4.1827,1.0927-0.12942,1.9075-0.24316,2.571-0.26862zm143.98,2.9164c3.7436,0,6.1523,3.0552,12.318,15.618,4.0251,8.2013,6.233,11.566,8.4805,12.893,1.6706,0.98689,3.2485,2.374,3.5303,3.1082,0.7434,1.9374,4.4122,27.827,4.7583,33.615,0.28361,4.7434,0.19566,4.9148-2.6861,5.5641-1.6442,0.37051-11.761,2.56-22.448,4.835-21.975,4.6776-38.249,9.4753-48.964,14.467-19.185,8.9367-40.497,16.152-72.602,24.597-12.473,3.2812-24.957,4.5146-28.895,2.8396-4.3035-1.8307-6.9839-5.0564-6.9839-8.4037,0-8.5505,14.779-19.971,44.858-34.689,29.109-14.244,56.838-29.678,74.252-41.366,13.728-9.2145,14.543-9.9909,20.645-19.11,6.8218-10.195,10.53-13.968,13.738-13.968zm-711.82,4.9885c3.3009,0,15.101,6.8997,19.762,11.55,4.8586,4.8476,13.431,19.956,13.431,23.676,0,2.371-8.0614,8.3992-15.081,11.282-7.8104,3.2074-24.647,4.8257-25.557,2.4559-0.29666-0.77319-0.0372-7.5087,0.5756-14.966,1.3381-16.281,4.9126-33.999,6.8688-33.999zm150.88,55.795c3.6707,0,27.345,6.5889,35.994,10.015,11.521,4.5638,14.836,6.3782,29.662,16.194,9.242,6.1181,26.9,21.791,26.9,23.868,0,1.2615-2.261,0.78267-6.1397-1.2663-2.0073-1.0604-7.5893-3.0966-12.433-4.528-10.97-3.242-10.281-3.0114-31.082-10.284-19.905-6.9594-29.121-11.615-35.649-17.997-6.1956-6.0583-10.713-16.002-7.2525-16.002zm-134.11,4.3362c14.877,0.0966,30.64,2.9384,41.865,8.2502,9.2932,4.3976,12.702,7.9883,12.817,13.507,0.10319,4.9556-0.0503,5.0486-13.584,6.7537-20.841,2.6258-42.079,12.794-56.063,26.861-3.2884,3.3079-6.2111,6.0519-6.4851,6.063-0.93851,0.039-6.8788-9.4435-9.3631-14.927-3.878-8.5603-5.5791-16.578-5.5641-26.362,0.01835-12.168,0.30703-13,5.7944-15.311,7.9593-3.3517,19.013-4.9101,30.583-4.835zm724.18,15.349c1.8456-0.3728,2.3599,45.904,0.53723,48.35-0.69466,0.93247-4.6385,2.8956-8.7491,4.3745-6.2465,2.2475-9.4607,2.7446-19.455,2.9931-17.013,0.42302-24.611-2.5095-28.473-11.013-3.5709-7.8628-1.379-22.341,4.2594-28.166,6.8459-7.0725,23.555-13.343,40.407-15.157,5.6074-0.60371,10.778-1.2409,11.474-1.3814zm8.7491,1.5349c0.57581-0.0108,1.4159,0.23485,2.3791,0.61397v11.819c-3.365-5.8128-4.8336-11.606-2.878-12.356,0.13107-0.0503,0.31562-0.0735,0.49885-0.0767zm-603.38,15.81c9.5962,0.0276,19.742,2.669,26.861,7.6363,7.5217,5.2476,5.9553,11.426-6.2548,24.367-16.43,17.413-20.832,22.414-24.137,27.514-2.6648,4.1125-3.8544,5.1036-6.063,5.1036-6.1741,0-18.549-17.858-20.875-30.123-2.0396-10.755,3.0899-24.836,10.821-29.739,5.0586-3.2081,12.183-4.7798,19.647-4.7583zm-86.378,8.9026c4.3207-0.0849,8.257,0.37416,10.668,1.3814,4.4435,1.8566,4.5204,4.6262,0.49884,16.347-4.0748,11.876-6.0148,25.119-6.0246,41.098-0.008,23.754,3.3125,34.135,14.62,45.703,7.8007,7.9798,8.0164,8.676,4.1827,14.121-1.8088,2.5692-13.086,11.371-17.498,13.661-1.2001,0.62282-7.7197,2.9956-14.467,5.2571-14.755,4.9458-26.12,6.0662-31.236,3.1082-6.118-3.5374-7.452-5.0267-10.783-12.279-7.2493-15.785-8.4844-22.274-9.248-48.274-0.50752-17.282-0.40474-19.636,1.5733-27.283,6.8749-26.581,22.797-44.733,44.705-50.998,3.9602-1.1325,8.6878-1.757,13.009-1.8419zm-84.536,5.4106c2.1173,2.2537,12.333,22.41,11.358,22.41-0.99944,0-6.3857-2.7598-11.358-5.6025v-16.807zm678.82,4.835c2.5641-0.102,4.4395,0.18326,5.6792,0.84421,2.7606,1.4718,9.122,11.383,11.051,17.23,0.99061,3.0014,1.1282,8.8446,0.65234,24.405-0.81255,26.577-1.4879,30.021-8.2119,41.174-2.9704,4.9272-5.4106,9.1419-5.4106,9.3631,0,0.22119-7.4136,11.533-16.462,25.134-9.4202,14.161-17.374,27.229-18.611,30.583-1.8001,4.8826-2.1649,8.0898-2.2256,19.302-0.068,12.577,0.12187,13.841,2.6094,19.148,1.4635,3.1221,4.6796,7.6726,7.1374,10.131,6.4194,6.4193,16.68,11.392,19.685,9.5166,1.098-0.68516,0.92995-1.1908-0.92096-2.4943-4.8281-3.4002-7.936-7.2533-11.128-13.738-2.8669-5.8236-3.3522-7.9429-3.7606-16.424-0.35415-7.3534-0.0538-11.171,1.2279-15.58,3.8596-13.277,14.292-30.125,29.317-47.237,15.188-17.299,18.896-22.864,21.144-31.888,1.0914-4.3809,1.8749-5.6137,4.2211-6.6002,6.4143-2.697,16.813,0.96704,21.988,7.7514,3.3365,4.3744,7.0607,12.671,9.0945,20.184l1.6884,6.2165-5.6792,14.313c-41.43,104.19-127.69,185.42-234.76,221.11-8.1871,2.7291-14.982,4.94-15.119,4.9118-0.98086-0.20203-12.587-10.411-18.956-16.692-8.6309-8.5118-16.939-19.578-21.489-28.588-6.6861-13.24-20.211-58.415-25.979-86.839-5.0773-25.024-6.4452-37.836-6.4851-59.632-0.0419-22.991,0.60857-26.875,6.7153-39.256,7.3205-14.842,13.644-23.296,27.053-36.109,25.563-24.427,61.628-38.122,100.65-38.22,11.15-0.028,13.597,0.25016,17.537,2.0722,8.9567,4.1426,15.848,15.226,15.848,25.48,0,6.8492-1.3329,10.443-6.9839,18.764-8.8026,12.962-13.581,28.177-11.32,36.032l0.95932,3.3385,2.3791-7.3677c2.8458-8.8376,7.6488-16.317,16.194-25.096,6.4852-6.6631,13.639-10.898,18.342-10.898,1.4485,0,4.1002,0.9156,5.9095,2.0338,2.8923,1.7876,3.3753,2.7095,3.9908,7.6363,1.507,12.062-1.0936,26.326-7.099,38.795-5.8419,12.13-16.011,25.316-23.446,30.43-2.2285,1.5326-2.282,1.7831-0.80584,3.3001,1.4754,1.5162,1.9201,1.5352,5.4106,0.0767,5.7683-2.4102,17.414-10.357,21.911-14.927,6.9817-7.095,13.308-18.39,17.805-31.85,3.3054-9.8933,3.6633-25.81,0.76746-34.191-3.8601-11.171-10.974-21.105-24.827-34.728-13.15-12.931-13.2-13.004-13.2-17.575,0-4.0774,0.45018-5.0485,4.1443-8.634,5.5471-5.384,11.815-8.5899,20.261-10.438,13.384-2.9281,31.992-7.4992,42.748-10.514,8.3246-2.3335,14.491-3.5906,18.765-3.7606zm-445.17,16.117c7.5868-0.0464,8.3663,0.15308,15.733,4.2594,8.3799,4.671,21.276,16.22,28.626,25.595,2.4663,3.1456,7.2576,9.1626,10.629,13.392,5.6981,7.1477,15.889,25.646,23.945,43.4,1.7408,3.8365,4.5497,10.005,6.2165,13.699,3.9708,8.8015,9.7542,29.217,10.975,38.642,3.7986,29.333-3.4281,103.38-12.586,128.86-5.2109,14.494-27.992,56.272-34.459,63.201-2.7927,2.992-1.7943,3.177-23.446-3.8757-23.397-7.6213-54.166-21.086-70.952-31.006-16.863-9.9642-25.935-16.006-42.172-28.128-41.994-31.351-77.738-72.294-103.72-118.84-4.8611-8.708-5.62-10.794-5.2955-14.275,0.20907-2.244,1.0253-4.5184,1.8035-5.0269,0.79032-0.51632,5.7933-0.63549,11.358-0.30698,8.6228,0.50896,11.282,0.24268,19.647-1.9187,25.741-6.651,45.872-18.458,61.973-36.339,3.7868-4.2055,9.4611-10.476,12.625-13.929,3.1636-3.454,8.6564-10.636,12.203-15.963,10.043-15.086,18.503-22.103,26.631-22.103,7.6273,0,8.7403,1.3435,20.261,24.943,9.2066,18.859,12.017,23.62,21.642,36.493,6.0872,8.1404,11.98,16.572,13.124,18.765,2.1972,4.213,2.9004,13.303,1.4582,18.956l-0.76746,2.9931,1.9954-2.3408c2.9363-3.4385,4.2052-9.3551,3.492-16.385-0.85012-8.3815-1.8962-11.578-7.3677-22.64-2.5754-5.2067-6.4211-13.936-8.5572-19.417-2.1361-5.4808-6.9448-16.157-10.668-23.715-9.5373-19.36-11.021-24.183-9.8236-31.62,1.2056-7.4855,3.867-13.492,8.0584-18.266,4.9899-5.6831,8.2672-7.0431,17.421-7.099zm75.825,3.4536c8.4108,0,13.991,4.8306,17.805,15.464,1.9396,5.4069,3.5072,7.8356,7.0223,10.936,2.4853,2.1923,4.4897,4.2622,4.4897,4.6048-0.0188,1.4344-11.469-0.12243-18.841-2.571-4.8386-1.6071-12.292-6.3509-14.85-9.4398-2.5792-3.1138-5.12-9.6193-5.142-13.124-0.0262-4.2886,2.543-5.8711,9.5166-5.8711zm-194.71,3.2617c0.5476-0.004,1.1466,0.0691,1.8803,0.23024,7.7062,1.6926,17.3,14.855,19.954,27.36,2.7532,12.975-1.1545,36.113-7.099,42.057-3.5334,3.5335-7.6069,3.662-14.428,0.46048-6.6401-3.1164-10.136-6.7937-13.853-14.582-3.0012-6.2893-3.0699-6.8684-3.0699-20.415,0-13.67,0.0306-14.106,3.1466-20.453,1.7492-3.5625,5.1966-8.3971,7.6363-10.783,2.9923-2.9262,4.1899-3.8623,5.8327-3.8757zm627.02,8.7107c6.4467,0,18.666,2.1959,21.297,3.8373,1.3963,0.87103-0.67954,14.944-4.9885,33.768-1.1605,5.0697-2.3671,9.2169-2.6861,9.2096-0.31908-0.006-1.5746-1.5599-2.8012-3.4536-1.4318-2.2106-4.9174-4.93-9.7084-7.5595-13.538-7.4298-19.652-18.762-15.503-28.78,1.9731-4.7633,6.6003-7.0223,14.39-7.0223zm44.666,17.844,0.92096,0c-0.31951,0.0492-0.61924,0.0396-0.92096,0zm-786.46,2.2257c0.651,0.86483,0.99771,1.4823,0.99771,1.7652,0,0.91582-0.39436,1.8823-0.99771,2.7245v-4.4897zm203.72,370.38,0,0.95932c-0.28962-0.10092-0.46168-0.22547-0.46048-0.4221,0.00079-0.1338,0.17391-0.33169,0.46048-0.53722z"
     id="path6"
     style="fill:#ffffff;fill-opacity:1" />
</svg>
